<?xml version="1.0" encoding="UTF-8"?>
<svg id="_Слой_2" data-name="Слой 2" xmlns="http://www.w3.org/2000/svg" viewBox="0 0 280 62.08">
  <defs>
    <style>
      .cls-1 {
        fill: #fff;
        stroke-width: 0px;
      }
    </style>
  </defs>
  <g id="_Слой_1-2" data-name="Слой 1">
    <g>
      <g>
        <g>
          <rect class="cls-1" x="33.62" y="37.85" width="13.23" height="24.22"/>
          <polygon class="cls-1" points="37.48 15.25 37.45 15.27 37.45 15.22 0 15.22 0 28.46 24.26 28.46 .02 52.7 9.38 62.06 46.83 24.6 37.48 15.25"/>
        </g>
        <rect class="cls-1" x="46.85" y=".4" width="13.23" height="24.22"/>
        <polygon class="cls-1" points="56.21 47.21 56.23 47.19 56.23 47.23 93.69 47.23 93.69 34 69.42 34 93.66 9.76 84.31 .4 46.85 37.85 56.21 47.21"/>
      </g>
      <path class="cls-1" d="M160.41,27.54c-2.84-1.28-4.98-3.03-6.43-5.26-1.45-2.22-2.17-4.74-2.17-7.55s.72-5.33,2.17-7.55c1.45-2.22,3.59-3.98,6.43-5.26,2.84-1.28,6.27-1.92,10.31-1.92s7.48.64,10.31,1.92c2.84,1.28,4.98,3.04,6.43,5.26,1.45,2.22,2.17,4.74,2.17,7.55s-.72,5.33-2.17,7.55c-1.45,2.22-3.59,3.98-6.43,5.26-2.84,1.28-6.28,1.92-10.31,1.92s-7.48-.64-10.31-1.92ZM177.68,23.33c1.94-.87,3.4-2.06,4.4-3.56,1-1.5,1.49-3.18,1.49-5.03s-.5-3.53-1.49-5.03c-1-1.5-2.46-2.69-4.4-3.56-1.94-.87-4.26-1.31-6.96-1.31s-5.02.44-6.96,1.31c-1.94.87-3.4,2.06-4.4,3.56-1,1.5-1.49,3.18-1.49,5.03s.5,3.53,1.49,5.03c1,1.5,2.46,2.69,4.4,3.56,1.94.87,4.26,1.31,6.96,1.31s5.02-.44,6.96-1.31Z"/>
      <path class="cls-1" d="M197.61,29.06h-5.73V.41h9.17l14.16,23.2h.29V.41h5.73v28.65h-9.17l-14.16-23.2h-.29v23.2Z"/>
      <path class="cls-1" d="M229.46,16.66v7.49h19.32v4.91h-25.05V.41h24.23v4.91h-18.5v7.24h16.86v4.09h-16.86Z"/>
      <path class="cls-1" d="M265.27,29.06h-5.73v-6.34L244.81.41h6.38l11.09,16.98h.25L273.62.41h6.38l-14.73,22.3v6.34Z"/>
      <g>
        <path class="cls-1" d="M243.12,42.88c.47-.42.71-.97.71-1.66,0-.77-.29-1.39-.88-1.87-.59-.47-1.45-.71-2.59-.71h-5.08v8.52h1.7v-3h3.23c.54,0,.93.1,1.17.31.25.21.37.51.37.92v1.77h1.7v-1.68c0-.6-.19-1.07-.58-1.4-.39-.33-.96-.5-1.74-.5v-.07c.84,0,1.5-.21,1.97-.63ZM240.17,42.94h-3.19v-2.85h3.19c.61,0,1.07.13,1.38.38.31.26.47.6.47,1.04s-.16.79-.47,1.04c-.31.26-.77.38-1.38.38Z"/>
        <path class="cls-1" d="M239.36,33.77c-5.01,0-9.07,4.08-9.07,9.11s4.06,9.11,9.07,9.11,9.07-4.08,9.07-9.11-4.06-9.11-9.07-9.11ZM244.5,49.46h-10.32c-.8,0-1.44-.65-1.44-1.44v-10.32c0-.8.65-1.44,1.44-1.44h10.32c.8,0,1.44.65,1.44,1.44v10.32c0,.8-.65,1.44-1.44,1.44Z"/>
      </g>
      <g>
        <path class="cls-1" d="M145.76,62.08h-5.25l-11.14-28.24h4.28l9.48,24.41h.2l8.88-24.41h4.44l8.84,24.41h.2l9.48-24.41h4.24l-11.1,28.24h-5.25l-8.51-23.2h-.24l-8.55,23.2Z"/>
        <path class="cls-1" d="M194.97,62.08h4.24l-11.1-28.24h-5.25l-11.1,28.24h4.24l2.81-7.25h13.34l2.81,7.25ZM180.31,50.99l5.18-13.33h0l5.18,13.33h-10.36Z"/>
        <polygon class="cls-1" points="195.42 33.83 192.82 33.83 192.78 33.83 191.33 33.83 202.28 62.08 206.52 62.08 195.42 33.83"/>
        <path class="cls-1" d="M218.42,36.27c-1.88-1.63-4.64-2.44-8.27-2.44h-15.87v3.83h15.87c2.23,0,3.93.48,5.1,1.43,1.17.96,1.76,2.23,1.76,3.81s-.59,2.86-1.76,3.81c-1.17.96-2.87,1.43-5.1,1.43h-11.55v3.83h11.55c3.63,0,6.39-.81,8.27-2.44,1.88-1.63,2.82-3.84,2.82-6.64s-.94-5.01-2.82-6.64Z"/>
        <path class="cls-1" d="M130.91,48.15c-1.48-1.28-3.59-1.99-6.28-2.13v-.03h-3.95c-1.81,0-3.2-.39-4.13-1.15-.92-.75-1.37-1.73-1.37-2.99s.45-2.24,1.37-2.99c.93-.76,2.32-1.14,4.13-1.14h11.43l1.53-3.89h-12.96c-3.15,0-5.58.72-7.23,2.15-1.66,1.44-2.51,3.41-2.51,5.87s.84,4.44,2.51,5.87c1.65,1.43,4.08,2.15,7.23,2.15h1.56s1.44,0,1.44,0c1.81,0,3.2.39,4.13,1.15.92.75,1.37,1.73,1.37,2.99s-.45,2.24-1.37,2.99c-.93.76-2.32,1.14-4.13,1.14h-11.43l-1.53,3.89h12.96c3.15,0,5.58-.72,7.23-2.15,1.66-1.44,2.51-3.41,2.51-5.87s-.84-4.44-2.51-5.87Z"/>
      </g>
      <polygon class="cls-1" points="140.73 .41 130.62 19.73 130.42 19.73 120.1 .41 111.1 .41 111.1 29.06 116.83 29.06 116.83 5.69 117.04 5.69 127.09 24.13 133.58 24.13 143.64 5.69 143.84 5.69 143.84 29.06 149.57 29.06 149.57 .41 140.73 .41"/>
    </g>
  </g>
</svg>