<?xml version="1.0" encoding="UTF-8"?>
<svg id="_Слой_2" data-name="Слой 2" xmlns="http://www.w3.org/2000/svg" viewBox="0 0 841.89 595.28">
  <defs>
    <style>
      .cls-1 {
        fill: #f6f6f6;
      }

      .cls-1, .cls-2 {
        stroke-width: 0px;
      }

      .cls-2 {
        fill: #2d2d2d;
      }
    </style>
  </defs>
  <g id="_Слой_1-2" data-name="Слой 1">
    <rect class="cls-2" width="841.89" height="595.28"/>
    <g>
      <polygon class="cls-1" points="239.75 269.4 239.7 269.45 239.7 269.37 173.59 269.37 173.59 292.73 216.42 292.73 173.63 335.52 190.15 352.04 256.27 285.92 239.75 269.4"/>
      <polygon class="cls-1" points="338.94 259.72 322.42 243.2 279.67 285.95 279.67 243.2 256.3 243.2 256.3 285.97 279.65 285.97 256.3 309.32 256.3 309.32 232.94 309.32 232.94 352.08 256.3 352.08 256.3 309.32 272.82 325.83 272.86 325.79 272.86 325.87 338.98 325.87 338.98 302.51 296.14 302.51 338.94 259.72"/>
      <path class="cls-1" d="M456.78,291.11c5.01,2.26,11.08,3.4,18.21,3.4s13.2-1.13,18.21-3.4c5.01-2.26,8.79-5.36,11.34-9.28,2.55-3.92,3.83-8.37,3.83-13.33s-1.28-9.4-3.83-13.33c-2.55-3.92-6.33-7.02-11.34-9.28-5.01-2.26-11.08-3.4-18.21-3.4s-13.2,1.13-18.21,3.4c-5.01,2.26-8.79,5.36-11.34,9.28-2.55,3.93-3.83,8.37-3.83,13.33s1.28,9.4,3.83,13.33c2.55,3.93,6.33,7.02,11.34,9.28ZM454.94,259.61c1.76-2.65,4.35-4.74,7.77-6.29,3.42-1.54,7.51-2.31,12.28-2.31s8.86.77,12.28,2.31c3.42,1.54,6.01,3.64,7.77,6.29,1.76,2.65,2.64,5.61,2.64,8.89s-.88,6.24-2.64,8.89c-1.76,2.65-4.35,4.74-7.77,6.29-3.42,1.54-7.51,2.31-12.28,2.31s-8.86-.77-12.28-2.31c-3.42-1.54-6.01-3.64-7.77-6.29-1.76-2.65-2.64-5.61-2.64-8.89s.88-6.24,2.64-8.89Z"/>
      <polygon class="cls-1" points="522.45 252.82 522.96 252.82 547.96 293.78 564.14 293.78 564.14 243.21 554.03 243.21 554.03 284.18 553.52 284.18 528.52 243.21 512.34 243.21 512.34 293.78 522.45 293.78 522.45 252.82"/>
      <polygon class="cls-1" points="656.62 243.21 637.05 273.19 636.61 273.19 617.03 243.21 611.33 243.21 605.76 243.21 568.55 243.21 568.55 293.78 612.77 293.78 612.77 285.12 578.67 285.12 578.67 271.89 608.44 271.89 608.44 264.67 578.67 264.67 578.67 251.88 611.33 251.88 611.33 251.63 631.77 282.59 631.77 293.78 641.89 293.78 641.89 282.59 667.89 243.21 656.62 243.21"/>
      <path class="cls-1" d="M602.78,318.18c.83-.74,1.25-1.72,1.25-2.93,0-1.36-.52-2.46-1.56-3.3-1.04-.84-2.56-1.26-4.57-1.26h-8.96v15.05h3.01v-5.29h5.7c.95,0,1.64.18,2.07.55.44.37.66.91.66,1.62v3.12h3.01v-2.97c0-1.06-.34-1.88-1.02-2.47-.68-.59-1.7-.88-3.06-.88v-.13c1.49,0,2.65-.37,3.48-1.11ZM597.58,318.3h-5.63v-5.03h5.63c1.07,0,1.89.23,2.44.68.55.45.83,1.06.83,1.84s-.28,1.39-.83,1.84c-.55.45-1.36.68-2.44.68Z"/>
      <path class="cls-1" d="M596.14,302.11c-8.84,0-16.01,7.2-16.01,16.08s7.17,16.08,16.01,16.08,16.01-7.2,16.01-16.08-7.17-16.08-16.01-16.08ZM607.77,327.25c0,1.41-1.14,2.55-2.55,2.55h-18.22c-1.41,0-2.55-1.14-2.55-2.55v-18.22c0-1.41,1.14-2.55,2.55-2.55h18.22c1.41,0,2.55,1.14,2.55,2.55v18.22Z"/>
      <path class="cls-1" d="M482.84,302.22l-16.74,43.09h-.36l-15.6-43.09h-7.84l-15.67,43.09h-.36l-16.74-43.09h-.02,0s-22.88,0-22.88,0c-5.55,0-9.85,1.28-12.76,3.79-2.94,2.54-4.43,6.03-4.43,10.37s1.49,7.83,4.43,10.37c2.91,2.52,7.21,3.79,12.76,3.79h2.76s2.54,0,2.54,0c3.2,0,5.65.68,7.3,2.02,1.63,1.33,2.43,3.06,2.43,5.28s-.79,3.95-2.43,5.28c-1.64,1.34-4.1,2.02-7.3,2.02h-20.18l-2.7,6.86h22.88c5.55,0,9.85-1.28,12.76-3.79,2.94-2.54,4.43-6.03,4.43-10.37s-1.49-7.83-4.43-10.37c-2.61-2.26-6.34-3.52-11.08-3.75v-.05h-6.97c-3.2,0-5.65-.68-7.3-2.02-1.63-1.33-2.43-3.06-2.43-5.28s.79-3.95,2.43-5.28c1.64-1.34,4.1-2.02,7.3-2.02h18.06l16.95,43h9.26l15.1-40.96h.43l15.03,40.96h9.26l19.59-49.86h-7.48Z"/>
      <path class="cls-1" d="M501.08,302.22h-4.67l-19.59,49.86h7.48l4.97-12.79h23.55l4.97,12.79h7.48l-19.59-49.86h-4.59ZM491.9,332.51l9.14-23.53h0l9.14,23.53h-18.28Z"/>
      <path class="cls-1" d="M559.17,306.53c-3.32-2.87-8.19-4.31-14.6-4.31h-33.21l19.34,49.86h7.48l-7-17.81h13.39c6.41,0,11.28-1.44,14.6-4.31,3.32-2.87,4.99-6.78,4.99-11.72s-1.66-8.84-4.99-11.72ZM553.58,324.97c-2.07,1.69-5.07,2.53-9.01,2.53h-16.05l-7.28-18.52h23.33c3.94,0,6.95.84,9.01,2.53,2.07,1.69,3.1,3.93,3.1,6.73s-1.03,5.05-3.1,6.73Z"/>
      <polygon class="cls-1" points="379.84 252.53 380.2 252.53 397.96 285.09 409.41 285.09 427.16 252.53 427.52 252.53 427.52 293.78 437.64 293.78 437.64 243.21 422.03 243.21 404.19 277.31 403.83 277.31 385.62 243.21 369.72 243.21 369.72 293.78 379.84 293.78 379.84 252.53"/>
    </g>
  </g>
</svg>