<svg id="Слой_1" data-name="Слой 1" xmlns="http://www.w3.org/2000/svg" viewBox="0 0 165.13 108.89"><defs><style>.cls-1{fill:#f6ff5f;}</style></defs><polygon class="cls-1" points="66.06 26.21 66.02 26.25 66.02 26.17 0 26.17 0 49.53 42.76 49.53 0.04 92.33 16.53 108.84 82.55 42.73 66.06 26.21"/><polygon class="cls-1" points="165.09 16.52 148.6 0 105.92 42.75 105.92 0.01 82.59 0.01 82.59 42.77 105.9 42.77 82.58 66.12 82.59 66.12 59.26 66.12 59.26 108.89 82.59 108.89 82.59 66.12 99.08 82.64 99.13 82.6 99.13 82.68 165.13 82.68 165.13 59.31 122.37 59.31 165.09 16.52"/><path class="cls-1" d="M159.12,98.18a2.46,2.46,0,0,0,.83-2A2.68,2.68,0,0,0,159,94a4.71,4.71,0,0,0-3-.84H150v10h2V99.69h3.77a2.11,2.11,0,0,1,1.38.37,1.32,1.32,0,0,1,.43,1.07v2.07h2v-2a2.08,2.08,0,0,0-.67-1.64,3.1,3.1,0,0,0-2-.58v-.09A3.36,3.36,0,0,0,159.12,98.18Zm-3.44.07h-3.74V94.91h3.74a2.5,2.5,0,0,1,1.61.45,1.62,1.62,0,0,1,.14,2.3.93.93,0,0,1-.14.14A2.5,2.5,0,0,1,155.68,98.25Z" transform="translate(-0.26)"/><path class="cls-1" d="M154.72,87.5a10.68,10.68,0,1,0,10.62,10.72v0a10.64,10.64,0,0,0-10.6-10.68Zm6,18.39h-12a1.68,1.68,0,0,1-1.7-1.68h0V92.1a1.7,1.7,0,0,1,1.7-1.69h12.07a1.69,1.69,0,0,1,1.69,1.69v12.1a1.69,1.69,0,0,1-1.68,1.69h0Z" transform="translate(-0.26)"/></svg>