<?xml version="1.0" encoding="UTF-8"?>
<svg id="_Режим_изоляции" data-name="Режим изоляции" xmlns="http://www.w3.org/2000/svg" viewBox="0 0 42.97 42.97">
  <defs>
    <style>
      .cls-1 {
        fill: #dd2b22;
      }

      .cls-1, .cls-2 {
        stroke-width: 0px;
      }

      .cls-2 {
        fill: #fff;
      }
    </style>
  </defs>
  <path class="cls-1" d="M18.27,26.27v-9.7c2.83,1.66,5.62,3.28,8.47,4.95-2.84,1.59-5.63,3.15-8.47,4.75Z"/>
  <g>
    <path class="cls-1" d="M21.52,0C9.62,0-.03,9.59,0,21.55c.03,11.81,9.57,21.41,21.48,21.42,11.9,0,21.46-9.59,21.48-21.44C42.99,9.6,33.37.04,21.52,0Z"/>
    <path class="cls-2" d="M21.48,12.18c2.97,0,5.94,0,8.91,0,1.7,0,2.97.73,3.7,2.27.21.45.35.97.36,1.47.03,4,.04,8,0,12-.02,1.95-1.62,3.77-4.08,3.76-3.44-.01-6.89,0-10.33,0-2.5,0-5,0-7.5,0-1.74,0-3.03-.78-3.74-2.39-.19-.43-.31-.93-.31-1.39-.02-3.99-.04-7.98,0-11.97.02-1.98,1.7-3.75,3.98-3.74,3,.02,6,0,9,0h0ZM18.27,26.27c2.84-1.59,5.63-3.15,8.47-4.75-2.85-1.67-5.64-3.3-8.47-4.95v9.7Z"/>
  </g>
</svg>